<svg xmlns="http://www.w3.org/2000/svg" width="18.001" height="10.972" viewBox="0 0 18.001 10.972"><defs><style>.a{fill:#999;}</style></defs><path class="a" d="M697,1928.89a3.969,3.969,0,0,1,4.1-4.127c2.731,0,4.05,2.441,3.9,4.845H699.2c.062,1.36.744,1.776,1.97,1.776.886,0,1.6-.155,1.739-.639h1.94c-.62,1.845-1.94,2.256-3.756,2.256A3.864,3.864,0,0,1,697,1928.89Zm2.2-.439h3.585c-.2-1.088-.684-2.071-1.754-2.071C699.634,1926.38,699.231,1927.846,699.2,1928.451Zm-12.2,4.441v-10.863h5.214c2.11,0,3.538.733,3.538,2.744a2.366,2.366,0,0,1-1.506,2.253,2.643,2.643,0,0,1,2.033,2.736c0,2.192-1.909,3.13-3.91,3.13Zm2.228-1.845h2.815c.963,0,1.8-.3,1.8-1.421,0-1.1-.713-1.543-1.753-1.543h-2.862Zm0-4.581H691.9c.854,0,1.49-.377,1.49-1.284,0-1.028-.808-1.241-1.677-1.241h-2.489Zm8.932-2.276v-1.1h5.54v1.1Z" transform="translate(-687 -1922.029)"/></svg>