<svg xmlns="http://www.w3.org/2000/svg" width="15.01" height="15.984" viewBox="0 0 15.01 15.984"><defs><style>.a{fill:#999;}</style></defs><path class="a" d="M656.963,1932.981c0-3.454,4.833-3.506,5.226-3.506s.457-.11.13-.46a1.26,1.26,0,0,1-.239-1.773c-1.09.043-4.094-.548-4.094-3.309s2.9-3.942,3.939-3.942h5.2a5.8,5.8,0,0,1-.784.5,3.08,3.08,0,0,1-1.567.155,3.215,3.215,0,0,1,1.415,2.585c0,1.709-.827,2.453-1.872,3.373s-.436,1.469,1.2,2.629a3.469,3.469,0,0,1-.022,5.589,6.226,6.226,0,0,1-3.911,1.151C659.279,1935.974,656.963,1935.055,656.963,1932.981Zm1.849-.636c0,1.6,1.155,2.674,3.307,2.674s3.421-.722,3.421-2.213-1.424-2.236-2.22-2.849C660.381,1929.957,658.813,1930.746,658.813,1932.345Zm2.9-11.829c-3.048,0-1.873,6.044.719,6.044,3.415,0,1.68-6.046-.668-6.045Zm7.288,4.469v-1.969h-1.992V1922H669v-1.966h1.018V1922h1.958v1.02h-1.958v1.969Z" transform="translate(-656.963 -1919.991)"/></svg>