<svg xmlns="http://www.w3.org/2000/svg" width="16" height="16" viewBox="0 0 16 16"><defs><style>.a{fill:#999;}</style></defs><path class="a" d="M765.4,1920H752.6a1.6,1.6,0,0,0-1.6,1.6v12.8a1.605,1.605,0,0,0,1.6,1.6h12.8a1.605,1.605,0,0,0,1.6-1.6v-12.8A1.6,1.6,0,0,0,765.4,1920Zm-6.4,4.8a3.2,3.2,0,1,1-3.2,3.2A3.21,3.21,0,0,1,759,1924.8Zm-6,9.6a.378.378,0,0,1-.4-.4v-6.8h1.68a2.726,2.726,0,0,0-.08.8,4.8,4.8,0,1,0,9.6,0,2.72,2.72,0,0,0-.08-.8h1.68v6.8a.378.378,0,0,1-.4.4Zm12.4-10.8a.378.378,0,0,1-.4.4h-1.6a.378.378,0,0,1-.4-.4V1922a.378.378,0,0,1,.4-.4H765a.378.378,0,0,1,.4.4Z" transform="translate(-751 -1919.999)"/></svg>