<svg xmlns="http://www.w3.org/2000/svg" width="16" height="15.968" viewBox="0 0 16 15.968"><defs><style>.a{fill:#999;}</style></defs><path class="a" d="M727.988,1920.019a7.983,7.983,0,0,0-3.167,15.318,7.027,7.027,0,0,1,.141-1.821c.154-.65,1.033-4.366,1.033-4.366a3.083,3.083,0,0,1-.256-1.269c0-1.187.689-2.074,1.548-2.074a1.075,1.075,0,0,1,1.083,1.2,17.212,17.212,0,0,1-.709,2.843,1.242,1.242,0,0,0,1.268,1.544c1.521,0,2.545-1.95,2.545-4.262a3,3,0,0,0-3.34-3.071,3.8,3.8,0,0,0-3.954,3.838,2.312,2.312,0,0,0,.53,1.573.388.388,0,0,1,.115.447c-.039.147-.126.5-.163.643a.277.277,0,0,1-.4.2,3.083,3.083,0,0,1-1.644-3.06c0-2.277,1.924-5.007,5.738-5.007a4.8,4.8,0,0,1,5.083,4.591c0,3.144-1.751,5.491-4.332,5.491a2.3,2.3,0,0,1-1.961-1s-.467,1.845-.564,2.2a6.72,6.72,0,0,1-.795,1.7,7.988,7.988,0,1,0,2.2-15.661Z" transform="translate(-719.988 -1920.019)"/></svg>