<svg xmlns="http://www.w3.org/2000/svg" width="16" height="12.974" viewBox="0 0 16 12.974"><defs><style>.a{fill:#999;}</style></defs><path class="a" d="M641.562,1922.588a5.8,5.8,0,0,1-1.832.517,3.5,3.5,0,0,0,1.376-1.789,5.359,5.359,0,0,1-2.06.728,0,0,0,0,0,0,0,3.3,3.3,0,0,0-5.687,2.276,3.247,3.247,0,0,0,.085.734h0a9.526,9.526,0,0,1-6.992-3.417,3.292,3.292,0,0,0,1,4.351,2.118,2.118,0,0,1-1.441-.371,3.174,3.174,0,0,0,2.546,3.219,2.605,2.605,0,0,1-1.374.1,3.121,3.121,0,0,0,2.95,2.237,5.415,5.415,0,0,1-4.571,1.366,9.917,9.917,0,0,0,5.163,1.457,9.16,9.16,0,0,0,9.238-9.62c0-.006,0-.013,0-.018s0-.03,0-.042,0-.033,0-.05A5.68,5.68,0,0,0,641.562,1922.588Z" transform="translate(-625.562 -1921.028)"/></svg>